<?xml version="1.0" encoding="UTF-8" standalone="no"?>
<svg
   x="0pt"
   y="0pt"
   width="450"
   height="320"
   viewBox="0 0 337.50002 240"
   version="1.1"
   id="svg333"
   sodipodi:docname="capybara.svg"
   inkscape:version="1.1.2 (b8e25be8, 2022-02-05)"
   xmlns:inkscape="http://www.inkscape.org/namespaces/inkscape"
   xmlns:sodipodi="http://sodipodi.sourceforge.net/DTD/sodipodi-0.dtd"
   xmlns:xlink="http://www.w3.org/1999/xlink"
   xmlns="http://www.w3.org/2000/svg"
   xmlns:svg="http://www.w3.org/2000/svg">
  <defs
     id="defs337" />
  <sodipodi:namedview
     id="namedview335"
     pagecolor="#ffffff"
     bordercolor="#666666"
     borderopacity="1.0"
     inkscape:pageshadow="2"
     inkscape:pageopacity="0.0"
     inkscape:pagecheckerboard="0"
     inkscape:document-units="pt"
     showgrid="false"
     units="px"
     inkscape:zoom="0.96"
     inkscape:cx="715.10417"
     inkscape:cy="316.66667"
     inkscape:window-width="1920"
     inkscape:window-height="952"
     inkscape:window-x="0"
     inkscape:window-y="25"
     inkscape:window-maximized="1"
     inkscape:current-layer="svg333" />
  <g
     id="1"
     transform="translate(10.113679,5.1775726)">
    <title
       id="title190">Layer 1</title>
    <defs
       id="defs202">
      <title
         id="title192">Path</title>
      <g
         id="2">
        <defs
           id="defs195">
          <path
             id="3"
             d="m 151.457,71.3629 c 30.863,0 60.053,-4.0508 90.849,-5.9623 28.475,-1.7675 56.946,-0.0533 85.431,-0.0533 29.776,0 60.748,4.8885 65.252,38.7487 2.075,15.604 -0.204,33.48 -1.521,49.073 -1.702,20.149 -3.286,52.792 -17.453,68.227 -19.741,21.508 -44.798,17.836 -71.365,18.536 -53.671,1.414 -107.056,-4.77 -160.564,-4.77" />
        </defs>
        <use
           xlink:href="#3"
           style="opacity:0;fill:#0070ba;fill-opacity:1;fill-rule:nonzero;stroke:none"
           id="use197"
           x="0"
           y="0"
           width="100%"
           height="100%" />
        <use
           xlink:href="#3"
           style="opacity:1;fill:none;stroke:#000000;stroke-width:9;stroke-linecap:round;stroke-linejoin:miter;stroke-miterlimit:10;stroke-opacity:1"
           id="use199"
           x="0"
           y="0"
           width="100%"
           height="100%" />
      </g>
    </defs>
    <use
       xlink:href="#2"
       id="use204"
       x="0"
       y="0"
       width="100%"
       height="100%"
       transform="translate(-87.9375,-23.71875)" />
    <defs
       id="defs216">
      <title
         id="title206">Path</title>
      <g
         id="4">
        <defs
           id="defs209">
          <path
             id="5"
             d="m 209.761,105.313 c 13.12,0 23.756,3.333 23.756,7.444 0,4.111 -10.636,7.444 -23.756,7.444 -13.12,0 -23.756,-3.333 -23.756,-7.444 0,-4.111 10.636,-7.444 23.756,-7.444 z" />
        </defs>
        <use
           xlink:href="#5"
           style="opacity:1;fill:#000000;fill-opacity:1;fill-rule:evenodd;stroke:none"
           id="use211"
           x="0"
           y="0"
           width="100%"
           height="100%" />
        <use
           xlink:href="#5"
           style="opacity:1;fill:none;stroke:#000000;stroke-width:9;stroke-linecap:butt;stroke-linejoin:miter;stroke-miterlimit:10;stroke-opacity:1"
           id="use213"
           x="0"
           y="0"
           width="100%"
           height="100%" />
      </g>
    </defs>
    <use
       xlink:href="#4"
       id="use218"
       x="0"
       y="0"
       width="100%"
       height="100%"
       transform="translate(-87.9375,-23.71875)" />
    <defs
       id="defs228">
      <title
         id="title220">Path</title>
      <g
         id="6">
        <defs
           id="defs223">
          <path
             id="7"
             d="M 362.986,230.657 C 338.191,224.044 308.5,204.353 292.888,185.903" />
        </defs>
        <use
           xlink:href="#7"
           style="opacity:1;fill:none;stroke:#000000;stroke-width:9;stroke-linecap:butt;stroke-linejoin:miter;stroke-miterlimit:10;stroke-opacity:1"
           id="use225"
           x="0"
           y="0"
           width="100%"
           height="100%" />
      </g>
    </defs>
    <use
       xlink:href="#6"
       id="use230"
       x="0"
       y="0"
       width="100%"
       height="100%"
       transform="translate(-87.9375,-23.71875)" />
    <defs
       id="defs242">
      <title
         id="title232">Path</title>
      <g
         id="8">
        <defs
           id="defs235">
          <path
             id="9"
             d="m 298.506,173.372 c -3.795,12.9 -10.497,17.67 -21.173,25.062" />
        </defs>
        <use
           xlink:href="#9"
           style="opacity:1;fill:#000000;fill-opacity:1;fill-rule:nonzero;stroke:none"
           id="use237"
           x="0"
           y="0"
           width="100%"
           height="100%" />
        <use
           xlink:href="#9"
           style="opacity:1;fill:none;stroke:#000000;stroke-width:9;stroke-linecap:round;stroke-linejoin:miter;stroke-miterlimit:10;stroke-opacity:1"
           id="use239"
           x="0"
           y="0"
           width="100%"
           height="100%" />
      </g>
    </defs>
    <use
       xlink:href="#8"
       id="use244"
       x="0"
       y="0"
       width="100%"
       height="100%"
       transform="translate(-87.9375,-23.71875)" />
    <defs
       id="defs254">
      <title
         id="title246">Path</title>
      <g
         id="10">
        <defs
           id="defs249">
          <path
             id="11"
             d="m 149.864,89.1127 c 1.559,-10.9184 5.32,-48.2906 -9.577,-50.8531 -14.411,-2.4791 -31.402,15.8546 -36.733,27.3238 -2.433,5.2347 -2.837,12.2774 -4.2459,17.9121" />
        </defs>
        <use
           xlink:href="#11"
           style="opacity:1;fill:none;stroke:#000000;stroke-width:9;stroke-linecap:round;stroke-linejoin:miter;stroke-miterlimit:10;stroke-opacity:1"
           id="use251"
           x="0"
           y="0"
           width="100%"
           height="100%" />
      </g>
    </defs>
    <use
       xlink:href="#10"
       id="use256"
       x="0"
       y="0"
       width="100%"
       height="100%"
       transform="translate(-87.9375,-23.71875)" />
    <defs
       id="defs266">
      <title
         id="title258">Path</title>
      <g
         id="12">
        <defs
           id="defs261">
          <path
             id="13"
             d="m 150.847,52.1743 c 0,0 0,0 0,0 z" />
        </defs>
        <use
           xlink:href="#13"
           style="opacity:1;fill:none;stroke:#000000;stroke-width:9;stroke-linecap:butt;stroke-linejoin:miter;stroke-miterlimit:10;stroke-opacity:1"
           id="use263"
           x="0"
           y="0"
           width="100%"
           height="100%" />
      </g>
    </defs>
    <use
       xlink:href="#12"
       id="use268"
       x="0"
       y="0"
       width="100%"
       height="100%"
       transform="translate(-87.9375,-23.71875)" />
    <defs
       id="defs278">
      <title
         id="title270">Path</title>
      <g
         id="14">
        <defs
           id="defs273">
          <path
             id="15"
             d="m 145.499,41.2088 c 19.172,-14.7477 19.903,12.0991 22.482,30.1541" />
        </defs>
        <use
           xlink:href="#15"
           style="opacity:1;fill:none;stroke:#000000;stroke-width:9;stroke-linecap:butt;stroke-linejoin:miter;stroke-miterlimit:10;stroke-opacity:1"
           id="use275"
           x="0"
           y="0"
           width="100%"
           height="100%" />
      </g>
    </defs>
    <use
       xlink:href="#14"
       id="use280"
       x="0"
       y="0"
       width="100%"
       height="100%"
       transform="translate(-87.9375,-23.71875)" />
    <defs
       id="defs292">
      <title
         id="title282">Path</title>
      <g
         id="16">
        <defs
           id="defs285">
          <path
             id="17"
             d="m 369.632,90.2265 c 3.67,0 6.646,3.3773 6.646,7.5434 0,4.1661 -2.976,7.5431 -6.646,7.5431 -3.67,0 -6.646,-3.377 -6.646,-7.5431 0,-4.1661 2.976,-7.5434 6.646,-7.5434 z" />
        </defs>
        <use
           xlink:href="#17"
           style="opacity:1;fill:#000000;fill-opacity:1;fill-rule:evenodd;stroke:none"
           id="use287"
           x="0"
           y="0"
           width="100%"
           height="100%" />
        <use
           xlink:href="#17"
           style="opacity:1;fill:none;stroke:#000000;stroke-width:9;stroke-linecap:butt;stroke-linejoin:miter;stroke-miterlimit:10;stroke-opacity:1"
           id="use289"
           x="0"
           y="0"
           width="100%"
           height="100%" />
      </g>
    </defs>
    <use
       xlink:href="#16"
       id="use294"
       x="0"
       y="0"
       width="100%"
       height="100%"
       transform="translate(-87.9375,-23.71875)" />
    <defs
       id="defs304">
      <title
         id="title296">Path</title>
      <g
         id="18">
        <defs
           id="defs299">
          <path
             id="19"
             d="m 118.932,67.7423 c 10.722,0 16.376,18.9474 16.376,27.2944" />
        </defs>
        <use
           xlink:href="#19"
           style="opacity:1;fill:none;stroke:#000000;stroke-width:9;stroke-linecap:round;stroke-linejoin:miter;stroke-miterlimit:10;stroke-opacity:1"
           id="use301"
           x="0"
           y="0"
           width="100%"
           height="100%" />
      </g>
    </defs>
    <use
       xlink:href="#18"
       id="use306"
       x="0"
       y="0"
       width="100%"
       height="100%"
       transform="translate(-87.9375,-23.71875)" />
    <defs
       id="defs316">
      <title
         id="title308">Path</title>
      <g
         id="20">
        <defs
           id="defs311">
          <path
             id="21"
             d="m 129.654,78.9492 c -2.799,5.198 -12.845,11.4494 -12.845,15.481" />
        </defs>
        <use
           xlink:href="#21"
           style="opacity:1;fill:none;stroke:#000000;stroke-width:9;stroke-linecap:round;stroke-linejoin:miter;stroke-miterlimit:10;stroke-opacity:1"
           id="use313"
           x="0"
           y="0"
           width="100%"
           height="100%" />
      </g>
    </defs>
    <use
       xlink:href="#20"
       id="use318"
       x="0"
       y="0"
       width="100%"
       height="100%"
       transform="translate(-87.9375,-23.71875)" />
    <defs
       id="defs328">
      <title
         id="title320">Path</title>
      <g
         id="22">
        <defs
           id="defs323">
          <path
             id="23"
             d="m 213.444,97.7699 c 6.133,0 11.106,2.9181 11.106,6.5171 0,3.599 -4.973,6.517 -11.106,6.517 -6.133,0 -11.106,-2.918 -11.106,-6.517 0,-3.599 4.973,-6.5171 11.106,-6.5171 z" />
        </defs>
        <use
           xlink:href="#23"
           style="opacity:1;fill:#ffffff;fill-opacity:1;fill-rule:evenodd;stroke:none"
           id="use325"
           x="0"
           y="0"
           width="100%"
           height="100%" />
      </g>
    </defs>
    <use
       xlink:href="#22"
       id="use330"
       x="0"
       y="0"
       width="100%"
       height="100%"
       transform="translate(-87.9375,-23.71875)" />
  </g>
</svg>
